# xmcd CD database file
#
# Track frame offsets:
#	150
#	30622
#	63940
#	88450
#	112890
#	134682
#	154545
#	174105
#	197707
#	221998
#	235008
#	256002
#	274100
#	291814
#	301016
#	312298
#	342061
#
# Disc length: 4771 seconds
#
# Revision: 0
# Processed by: cddbd v1.5.2PL0 Copyright (c) Steve Scherf et al.
# Submitted via: CDex 1.51
#
DISCID=ea12a111
DTITLE=Dave Brubeck Quartet - Time Out (1-7) Time Further Out (8-17)
DYEAR=1900
DGENRE=Jazz
TTITLE0=01-Blue Rondo A La Turk
TTITLE1=02-Strange Meadow Lark
TTITLE2=03-Take Five
TTITLE3=04-Three To Get Ready
TTITLE4=05-Kathy's Waltz
TTITLE5=06-Everybody's Jumpin'
TTITLE6=07-Pick Up Sticks
TTITLE7=01-It's A Raggy Waltz
TTITLE8=02-Bluette
TTITLE9=03-Charles Matthew Hallelujah
TTITLE10=04-Far More Blue
TTITLE11=05-Far More Drums
TTITLE12=06-Maori Blues
TTITLE13=07-Unsquare Dance
TTITLE14=08-Bru's Boogie Woogie
TTITLE15=09-Blue Shadows In The Street
TTITLE16=10-Slow And Easy (A.K.A. Lawless Mike)
EXTD=
EXTT0=
EXTT1=
EXTT2=
EXTT3=
EXTT4=
EXTT5=
EXTT6=
EXTT7=
EXTT8=
EXTT9=
EXTT10=
EXTT11=
EXTT12=
EXTT13=
EXTT14=
EXTT15=
EXTT16=
PLAYORDER=
